<?xml version="1.0" encoding="UTF-8" standalone="no"?>
<!DOCTYPE svg PUBLIC "-//W3C//DTD SVG 1.1//EN"
 "http://www.w3.org/Graphics/SVG/1.1/DTD/svg11.dtd">
<!-- Generated by graphviz version 12.1.2 (20240928.0832)
 -->
<!-- Title: role_permission_mapping Pages: 1 -->
<svg width="1067pt" height="1618pt"
 viewBox="0.00 0.00 1067.44 1618.40" xmlns="http://www.w3.org/2000/svg" xmlns:xlink="http://www.w3.org/1999/xlink">
<g id="graph0" class="graph" transform="scale(1 1) rotate(0) translate(4 1614.4)">
<title>role_permission_mapping</title>
<polygon fill="white" stroke="none" points="-4,4 -4,-1614.4 1063.44,-1614.4 1063.44,4 -4,4"/>
<!-- role_permission_mapping -->
<g id="node1" class="node">
<title>role_permission_mapping</title>
<polygon fill="#efefef" stroke="none" points="367.59,-1528.6 367.59,-1564.2 698.72,-1564.2 698.72,-1528.6 367.59,-1528.6"/>
<polygon fill="none" stroke="black" points="367.59,-1528.6 367.59,-1564.2 698.72,-1564.2 698.72,-1528.6 367.59,-1528.6"/>
<text text-anchor="start" x="374.59" y="-1542" font-family="Arial Bold" font-size="18.00">role_permission_mapping</text>
<text text-anchor="start" x="562.56" y="-1542" font-family="Arial" font-size="14.00">    </text>
<text text-anchor="start" x="593.68" y="-1542" font-family="Arial" font-size="14.00" fill="#666666">[BASIC TABLE]</text>
<polygon fill="none" stroke="black" points="367.59,-1497.8 367.59,-1528.6 698.72,-1528.6 698.72,-1497.8 367.59,-1497.8"/>
<text text-anchor="start" x="374.59" y="-1510" font-family="Arial" font-size="14.00">role_permission_mapping_uuid </text>
<text text-anchor="start" x="573.05" y="-1510" font-family="Arial" font-size="14.00" fill="#666666">[uniqueidentifier]</text>
<polygon fill="none" stroke="black" points="367.59,-1467 367.59,-1497.8 698.72,-1497.8 698.72,-1467 367.59,-1467"/>
<text text-anchor="start" x="374.59" y="-1479.2" font-family="Arial" font-size="14.00">role_permission_mapping_rid </text>
<text text-anchor="start" x="562.14" y="-1479.2" font-family="Arial" font-size="14.00" fill="#666666">[bigint]</text>
<polygon fill="none" stroke="black" points="367.59,-1436.2 367.59,-1467 698.72,-1467 698.72,-1436.2 367.59,-1436.2"/>
<text text-anchor="start" x="374.59" y="-1448.4" font-family="Arial" font-size="14.00">tenant_uuid </text>
<text text-anchor="start" x="451.66" y="-1448.4" font-family="Arial" font-size="14.00" fill="#666666">[uniqueidentifier]</text>
<polygon fill="none" stroke="black" points="367.59,-1405.4 367.59,-1436.2 698.72,-1436.2 698.72,-1405.4 367.59,-1405.4"/>
<text text-anchor="start" x="374.59" y="-1417.6" font-family="Arial" font-size="14.00">permission_code </text>
<text text-anchor="start" x="484.32" y="-1417.6" font-family="Arial" font-size="14.00" fill="#666666">[varchar(100)]</text>
<polygon fill="none" stroke="black" points="367.59,-1374.6 367.59,-1405.4 698.72,-1405.4 698.72,-1374.6 367.59,-1374.6"/>
<text text-anchor="start" x="374.59" y="-1386.8" font-family="Arial" font-size="14.00">role_rid </text>
<text text-anchor="start" x="425.17" y="-1386.8" font-family="Arial" font-size="14.00" fill="#666666">[bigint]</text>
<polygon fill="none" stroke="black" points="367.59,-1343.8 367.59,-1374.6 698.72,-1374.6 698.72,-1343.8 367.59,-1343.8"/>
<text text-anchor="start" x="374.59" y="-1356" font-family="Arial" font-size="14.00">created_by_user_rid </text>
<text text-anchor="start" x="506.12" y="-1356" font-family="Arial" font-size="14.00" fill="#666666">[bigint]</text>
<polygon fill="none" stroke="black" points="367.59,-1313 367.59,-1343.8 698.72,-1343.8 698.72,-1313 367.59,-1313"/>
<text text-anchor="start" x="374.59" y="-1325.2" font-family="Arial" font-size="14.00">notes </text>
<text text-anchor="start" x="412.73" y="-1325.2" font-family="Arial" font-size="14.00" fill="#666666">[nvarchar(1000)]</text>
<polygon fill="none" stroke="black" stroke-width="3" points="366.09,-1311.5 366.09,-1565.7 700.22,-1565.7 700.22,-1311.5 366.09,-1311.5"/>
</g>
<!-- account_details -->
<g id="node2" class="node">
<title>account_details</title>
<polygon fill="#efefef" stroke="none" points="43.2,-1121.2 43.2,-1156.8 303.11,-1156.8 303.11,-1121.2 43.2,-1121.2"/>
<polygon fill="none" stroke="black" points="43.2,-1121.2 43.2,-1156.8 303.11,-1156.8 303.11,-1121.2 43.2,-1121.2"/>
<text text-anchor="start" x="52.6" y="-1134.6" font-family="Arial Bold" font-size="18.00">account_details</text>
<text text-anchor="start" x="164.56" y="-1134.6" font-family="Arial" font-size="14.00">    </text>
<text text-anchor="start" x="195.67" y="-1134.6" font-family="Arial" font-size="14.00" fill="#666666">[BASIC TABLE]</text>
<polygon fill="none" stroke="black" points="43.2,-1090.4 43.2,-1121.2 303.11,-1121.2 303.11,-1090.4 43.2,-1090.4"/>
<text text-anchor="start" x="50.2" y="-1102.6" font-family="Arial" font-size="14.00">tenant_uuid </text>
<text text-anchor="start" x="127.27" y="-1102.6" font-family="Arial" font-size="14.00" fill="#666666">[uniqueidentifier]</text>
<polygon fill="none" stroke="black" points="43.2,-1059.6 43.2,-1090.4 303.11,-1090.4 303.11,-1059.6 43.2,-1059.6"/>
<text text-anchor="start" x="50.2" y="-1071.8" font-family="Arial" font-size="14.00">organization </text>
<text text-anchor="start" x="130.37" y="-1071.8" font-family="Arial" font-size="14.00" fill="#666666">[nvarchar(100)]</text>
<polygon fill="none" stroke="black" points="43.2,-1028.8 43.2,-1059.6 303.11,-1059.6 303.11,-1028.8 43.2,-1028.8"/>
<text text-anchor="start" x="50.2" y="-1041" font-family="Arial" font-size="14.00">company_address </text>
<text text-anchor="start" x="168.49" y="-1041" font-family="Arial" font-size="14.00" fill="#666666">[nvarchar(200)]</text>
<polygon fill="none" stroke="black" points="43.2,-998 43.2,-1028.8 303.11,-1028.8 303.11,-998 43.2,-998"/>
<text text-anchor="start" x="50.2" y="-1010.2" font-family="Arial" font-size="14.00">additional_address </text>
<text text-anchor="start" x="171.62" y="-1010.2" font-family="Arial" font-size="14.00" fill="#666666">[nvarchar(200)]</text>
<polygon fill="none" stroke="black" points="43.2,-967.2 43.2,-998 303.11,-998 303.11,-967.2 43.2,-967.2"/>
<text text-anchor="start" x="50.2" y="-979.4" font-family="Arial" font-size="14.00">zip_code </text>
<text text-anchor="start" x="110.13" y="-979.4" font-family="Arial" font-size="14.00" fill="#666666">[nvarchar(50)]</text>
<polygon fill="none" stroke="black" points="43.2,-936.4 43.2,-967.2 303.11,-967.2 303.11,-936.4 43.2,-936.4"/>
<text text-anchor="start" x="50.2" y="-948.6" font-family="Arial" font-size="14.00">phone_number </text>
<text text-anchor="start" x="148.28" y="-948.6" font-family="Arial" font-size="14.00" fill="#666666">[nvarchar(50)]</text>
<polygon fill="none" stroke="black" points="43.2,-905.6 43.2,-936.4 303.11,-936.4 303.11,-905.6 43.2,-905.6"/>
<text text-anchor="start" x="50.2" y="-917.8" font-family="Arial" font-size="14.00">fax_number </text>
<text text-anchor="start" x="128.02" y="-917.8" font-family="Arial" font-size="14.00" fill="#666666">[nvarchar(50)]</text>
<polygon fill="none" stroke="black" points="43.2,-874.8 43.2,-905.6 303.11,-905.6 303.11,-874.8 43.2,-874.8"/>
<text text-anchor="start" x="50.2" y="-887" font-family="Arial" font-size="14.00">email </text>
<text text-anchor="start" x="87.54" y="-887" font-family="Arial" font-size="14.00" fill="#666666">[nvarchar(50)]</text>
<polygon fill="none" stroke="black" points="43.2,-844 43.2,-874.8 303.11,-874.8 303.11,-844 43.2,-844"/>
<text text-anchor="start" x="50.2" y="-856.2" font-family="Arial" font-size="14.00">company_website </text>
<text text-anchor="start" x="166.15" y="-856.2" font-family="Arial" font-size="14.00" fill="#666666">[nvarchar(200)]</text>
<polygon fill="none" stroke="black" points="43.2,-813.2 43.2,-844 303.11,-844 303.11,-813.2 43.2,-813.2"/>
<text text-anchor="start" x="50.2" y="-825.4" font-family="Arial" font-size="14.00">support_contact_number </text>
<text text-anchor="start" x="208.96" y="-825.4" font-family="Arial" font-size="14.00" fill="#666666">[nvarchar(50)]</text>
<polygon fill="none" stroke="black" points="43.2,-782.4 43.2,-813.2 303.11,-813.2 303.11,-782.4 43.2,-782.4"/>
<text text-anchor="start" x="50.2" y="-794.6" font-family="Arial" font-size="14.00">city </text>
<text text-anchor="start" x="75.09" y="-794.6" font-family="Arial" font-size="14.00" fill="#666666">[nvarchar(50)]</text>
<polygon fill="none" stroke="black" points="43.2,-751.6 43.2,-782.4 303.11,-782.4 303.11,-751.6 43.2,-751.6"/>
<text text-anchor="start" x="50.2" y="-763.8" font-family="Arial" font-size="14.00">state </text>
<text text-anchor="start" x="84.44" y="-763.8" font-family="Arial" font-size="14.00" fill="#666666">[nvarchar(50)]</text>
<polygon fill="none" stroke="black" points="43.2,-720.8 43.2,-751.6 303.11,-751.6 303.11,-720.8 43.2,-720.8"/>
<text text-anchor="start" x="50.2" y="-733" font-family="Arial" font-size="14.00">phone_extension </text>
<text text-anchor="start" x="160.74" y="-733" font-family="Arial" font-size="14.00" fill="#666666">[int]</text>
<polygon fill="none" stroke="black" points="43.2,-690 43.2,-720.8 303.11,-720.8 303.11,-690 43.2,-690"/>
<text text-anchor="start" x="50.2" y="-702.2" font-family="Arial" font-size="14.00">country </text>
<text text-anchor="start" x="100" y="-702.2" font-family="Arial" font-size="14.00" fill="#666666">[nvarchar(50)]</text>
<polygon fill="none" stroke="black" points="43.2,-659.2 43.2,-690 303.11,-690 303.11,-659.2 43.2,-659.2"/>
<text text-anchor="start" x="50.2" y="-671.4" font-family="Arial" font-size="14.00">dealer_rid </text>
<text text-anchor="start" x="116.35" y="-671.4" font-family="Arial" font-size="14.00" fill="#666666">[bigint]</text>
<polygon fill="none" stroke="black" points="43.2,-628.4 43.2,-659.2 303.11,-659.2 303.11,-628.4 43.2,-628.4"/>
<text text-anchor="start" x="50.2" y="-640.6" font-family="Arial" font-size="14.00">csm_rid </text>
<text text-anchor="start" x="103.1" y="-640.6" font-family="Arial" font-size="14.00" fill="#666666">[bigint]</text>
<polygon fill="none" stroke="black" points="43.2,-597.6 43.2,-628.4 303.11,-628.4 303.11,-597.6 43.2,-597.6"/>
<text text-anchor="start" x="50.2" y="-609.8" font-family="Arial" font-size="14.00">account_type_rid </text>
<text text-anchor="start" x="160.72" y="-609.8" font-family="Arial" font-size="14.00" fill="#666666">[bigint]</text>
<polygon fill="none" stroke="black" points="43.2,-566.8 43.2,-597.6 303.11,-597.6 303.11,-566.8 43.2,-566.8"/>
<text text-anchor="start" x="50.2" y="-579" font-family="Arial" font-size="14.00">phone_type_code </text>
<text text-anchor="start" x="165.41" y="-579" font-family="Arial" font-size="14.00" fill="#666666">[varchar(30)]</text>
<polygon fill="none" stroke="black" points="43.2,-536 43.2,-566.8 303.11,-566.8 303.11,-536 43.2,-536"/>
<text text-anchor="start" x="50.2" y="-548.2" font-family="Arial" font-size="14.00">default_role_code </text>
<text text-anchor="start" x="165.4" y="-548.2" font-family="Arial" font-size="14.00" fill="#666666">[varchar(30)]</text>
<polygon fill="none" stroke="black" points="43.2,-505.2 43.2,-536 303.11,-536 303.11,-505.2 43.2,-505.2"/>
<text text-anchor="start" x="50.2" y="-517.4" font-family="Arial" font-size="14.00">is_active </text>
<text text-anchor="start" x="108.56" y="-517.4" font-family="Arial" font-size="14.00" fill="#666666">[bit]</text>
<polygon fill="none" stroke="black" points="43.2,-474.4 43.2,-505.2 303.11,-505.2 303.11,-474.4 43.2,-474.4"/>
<text text-anchor="start" x="50.2" y="-486.6" font-family="Arial" font-size="14.00">is_door_sensor_1 </text>
<text text-anchor="start" x="165.39" y="-486.6" font-family="Arial" font-size="14.00" fill="#666666">[bit]</text>
<polygon fill="none" stroke="black" points="43.2,-443.6 43.2,-474.4 303.11,-474.4 303.11,-443.6 43.2,-443.6"/>
<text text-anchor="start" x="50.2" y="-455.8" font-family="Arial" font-size="14.00">is_door_sensor_2 </text>
<text text-anchor="start" x="165.39" y="-455.8" font-family="Arial" font-size="14.00" fill="#666666">[bit]</text>
<polygon fill="none" stroke="black" points="43.2,-412.8 43.2,-443.6 303.11,-443.6 303.11,-412.8 43.2,-412.8"/>
<text text-anchor="start" x="50.2" y="-425" font-family="Arial" font-size="14.00">is_door_sensor_3 </text>
<text text-anchor="start" x="165.39" y="-425" font-family="Arial" font-size="14.00" fill="#666666">[bit]</text>
<polygon fill="none" stroke="black" points="43.2,-382 43.2,-412.8 303.11,-412.8 303.11,-382 43.2,-382"/>
<text text-anchor="start" x="50.2" y="-394.2" font-family="Arial" font-size="14.00">created_date </text>
<text text-anchor="start" x="135.82" y="-394.2" font-family="Arial" font-size="14.00" fill="#666666">[datetime]</text>
<polygon fill="none" stroke="black" points="43.2,-351.2 43.2,-382 303.11,-382 303.11,-351.2 43.2,-351.2"/>
<text text-anchor="start" x="50.2" y="-363.4" font-family="Arial" font-size="14.00">updated_date </text>
<text text-anchor="start" x="139.73" y="-363.4" font-family="Arial" font-size="14.00" fill="#666666">[datetime]</text>
<polygon fill="none" stroke="black" points="43.2,-320.4 43.2,-351.2 303.11,-351.2 303.11,-320.4 43.2,-320.4"/>
<text text-anchor="start" x="50.2" y="-332.6" font-family="Arial" font-size="14.00">activated_date </text>
<text text-anchor="start" x="145.16" y="-332.6" font-family="Arial" font-size="14.00" fill="#666666">[datetime]</text>
<polygon fill="none" stroke="black" points="43.2,-289.6 43.2,-320.4 303.11,-320.4 303.11,-289.6 43.2,-289.6"/>
<text text-anchor="start" x="50.2" y="-301.8" font-family="Arial" font-size="14.00">admin_user_rid </text>
<text text-anchor="start" x="150.59" y="-301.8" font-family="Arial" font-size="14.00" fill="#666666">[uniqueidentifier]</text>
<polygon fill="none" stroke="black" points="43.2,-258.8 43.2,-289.6 303.11,-289.6 303.11,-258.8 43.2,-258.8"/>
<text text-anchor="start" x="50.2" y="-271" font-family="Arial" font-size="14.00">created_by_user_rid </text>
<text text-anchor="start" x="181.72" y="-271" font-family="Arial" font-size="14.00" fill="#666666">[bigint]</text>
<polygon fill="none" stroke="black" points="43.2,-228 43.2,-258.8 303.11,-258.8 303.11,-228 43.2,-228"/>
<text text-anchor="start" x="50.2" y="-240.2" font-family="Arial" font-size="14.00">updated_by_user_rid </text>
<text text-anchor="start" x="185.63" y="-240.2" font-family="Arial" font-size="14.00" fill="#666666">[bigint]</text>
<polygon fill="none" stroke="black" points="43.2,-197.2 43.2,-228 303.11,-228 303.11,-197.2 43.2,-197.2"/>
<text text-anchor="start" x="50.2" y="-209.4" font-family="Arial" font-size="14.00">notes </text>
<text text-anchor="start" x="88.34" y="-209.4" font-family="Arial" font-size="14.00" fill="#666666">[nvarchar(1000)]</text>
<polygon fill="none" stroke="black" points="43.2,-166.4 43.2,-197.2 303.11,-197.2 303.11,-166.4 43.2,-166.4"/>
<text text-anchor="start" x="50.2" y="-178.6" font-family="Arial" font-size="14.00">test_data_group </text>
<text text-anchor="start" x="155.28" y="-178.6" font-family="Arial" font-size="14.00" fill="#666666">[int]</text>
<polygon fill="none" stroke="black" points="43.2,-135.6 43.2,-166.4 303.11,-166.4 303.11,-135.6 43.2,-135.6"/>
<text text-anchor="start" x="50.2" y="-147.8" font-family="Arial" font-size="14.00">active </text>
<text text-anchor="start" x="90.66" y="-147.8" font-family="Arial" font-size="14.00" fill="#666666">[bit]</text>
<polygon fill="none" stroke="black" points="43.2,-104.8 43.2,-135.6 303.11,-135.6 303.11,-104.8 43.2,-104.8"/>
<text text-anchor="start" x="50.2" y="-117" font-family="Arial" font-size="14.00">created </text>
<text text-anchor="start" x="100.79" y="-117" font-family="Arial" font-size="14.00" fill="#666666">[datetime]</text>
<polygon fill="none" stroke="black" points="43.2,-74 43.2,-104.8 303.11,-104.8 303.11,-74 43.2,-74"/>
<text text-anchor="start" x="50.2" y="-86.2" font-family="Arial" font-size="14.00">migrated_data </text>
<text text-anchor="start" x="143.59" y="-86.2" font-family="Arial" font-size="14.00" fill="#666666">[bit]</text>
</g>
<!-- role_permission_mapping&#45;&gt;account_details -->
<g id="edge1" class="edge">
<title>role_permission_mapping:tenant_uuid&#45;&gt;account_details:tenant_uuid</title>
<path fill="none" stroke="black" d="M356.71,-1449.39C296.91,-1419.94 378.54,-1105.8 304.11,-1105.8"/>
<polygon fill="black" stroke="black" points="356.51,-1449.35 365.29,-1455.92 361.71,-1450.51 365.94,-1451.45 365.94,-1451.45 365.94,-1451.45 361.71,-1450.51 367.25,-1447.14 356.51,-1449.35"/>
</g>
<!-- role -->
<g id="node3" class="node">
<title>role</title>
<polygon fill="#efefef" stroke="none" points="407.07,-844 407.07,-879.6 659.24,-879.6 659.24,-844 407.07,-844"/>
<polygon fill="none" stroke="black" points="407.07,-844 407.07,-879.6 659.24,-879.6 659.24,-844 407.07,-844"/>
<text text-anchor="start" x="454.59" y="-857.4" font-family="Arial Bold" font-size="18.00">role</text>
<text text-anchor="start" x="482.57" y="-857.4" font-family="Arial" font-size="14.00">    </text>
<text text-anchor="start" x="513.69" y="-857.4" font-family="Arial" font-size="14.00" fill="#666666">[BASIC TABLE]</text>
<polygon fill="none" stroke="black" points="407.07,-813.2 407.07,-844 659.24,-844 659.24,-813.2 407.07,-813.2"/>
<text text-anchor="start" x="414.07" y="-825.4" font-family="Arial" font-size="14.00">role_uuid </text>
<text text-anchor="start" x="475.56" y="-825.4" font-family="Arial" font-size="14.00" fill="#666666">[uniqueidentifier]</text>
<polygon fill="none" stroke="black" points="407.07,-782.4 407.07,-813.2 659.24,-813.2 659.24,-782.4 407.07,-782.4"/>
<text text-anchor="start" x="414.07" y="-794.6" font-family="Arial" font-size="14.00">role_rid </text>
<text text-anchor="start" x="464.65" y="-794.6" font-family="Arial" font-size="14.00" fill="#666666">[bigint]</text>
<polygon fill="none" stroke="black" points="407.07,-751.6 407.07,-782.4 659.24,-782.4 659.24,-751.6 407.07,-751.6"/>
<text text-anchor="start" x="414.07" y="-763.8" font-family="Arial" font-size="14.00">tenant_uuid </text>
<text text-anchor="start" x="491.14" y="-763.8" font-family="Arial" font-size="14.00" fill="#666666">[uniqueidentifier]</text>
<polygon fill="none" stroke="black" points="407.07,-720.8 407.07,-751.6 659.24,-751.6 659.24,-720.8 407.07,-720.8"/>
<text text-anchor="start" x="414.07" y="-733" font-family="Arial" font-size="14.00">name </text>
<text text-anchor="start" x="452.98" y="-733" font-family="Arial" font-size="14.00" fill="#666666">[nvarchar(100)]</text>
<polygon fill="none" stroke="black" points="407.07,-690 407.07,-720.8 659.24,-720.8 659.24,-690 407.07,-690"/>
<text text-anchor="start" x="414.07" y="-702.2" font-family="Arial" font-size="14.00">description </text>
<text text-anchor="start" x="485.66" y="-702.2" font-family="Arial" font-size="14.00" fill="#666666">[nvarchar(100)]</text>
<polygon fill="none" stroke="black" points="407.07,-659.2 407.07,-690 659.24,-690 659.24,-659.2 407.07,-659.2"/>
<text text-anchor="start" x="414.07" y="-671.4" font-family="Arial" font-size="14.00">role_type_code </text>
<text text-anchor="start" x="513.7" y="-671.4" font-family="Arial" font-size="14.00" fill="#666666">[varchar(30)]</text>
<polygon fill="none" stroke="black" points="407.07,-628.4 407.07,-659.2 659.24,-659.2 659.24,-628.4 407.07,-628.4"/>
<text text-anchor="start" x="414.07" y="-640.6" font-family="Arial" font-size="14.00">is_active </text>
<text text-anchor="start" x="472.43" y="-640.6" font-family="Arial" font-size="14.00" fill="#666666">[bit]</text>
<polygon fill="none" stroke="black" points="407.07,-597.6 407.07,-628.4 659.24,-628.4 659.24,-597.6 407.07,-597.6"/>
<text text-anchor="start" x="414.07" y="-609.8" font-family="Arial" font-size="14.00">is_standard_role </text>
<text text-anchor="start" x="521.47" y="-609.8" font-family="Arial" font-size="14.00" fill="#666666">[bit]</text>
<polygon fill="none" stroke="black" points="407.07,-566.8 407.07,-597.6 659.24,-597.6 659.24,-566.8 407.07,-566.8"/>
<text text-anchor="start" x="414.07" y="-579" font-family="Arial" font-size="14.00">created_date </text>
<text text-anchor="start" x="499.69" y="-579" font-family="Arial" font-size="14.00" fill="#666666">[datetime]</text>
<polygon fill="none" stroke="black" points="407.07,-536 407.07,-566.8 659.24,-566.8 659.24,-536 407.07,-536"/>
<text text-anchor="start" x="414.07" y="-548.2" font-family="Arial" font-size="14.00">updated_date </text>
<text text-anchor="start" x="503.6" y="-548.2" font-family="Arial" font-size="14.00" fill="#666666">[datetime]</text>
<polygon fill="none" stroke="black" points="407.07,-505.2 407.07,-536 659.24,-536 659.24,-505.2 407.07,-505.2"/>
<text text-anchor="start" x="414.07" y="-517.4" font-family="Arial" font-size="14.00">created_by_user_rid </text>
<text text-anchor="start" x="545.59" y="-517.4" font-family="Arial" font-size="14.00" fill="#666666">[uniqueidentifier]</text>
<polygon fill="none" stroke="black" points="407.07,-474.4 407.07,-505.2 659.24,-505.2 659.24,-474.4 407.07,-474.4"/>
<text text-anchor="start" x="414.07" y="-486.6" font-family="Arial" font-size="14.00">updated_by_user_rid </text>
<text text-anchor="start" x="549.5" y="-486.6" font-family="Arial" font-size="14.00" fill="#666666">[uniqueidentifier]</text>
<polygon fill="none" stroke="black" points="407.07,-443.6 407.07,-474.4 659.24,-474.4 659.24,-443.6 407.07,-443.6"/>
<text text-anchor="start" x="414.07" y="-455.8" font-family="Arial" font-size="14.00">notes </text>
<text text-anchor="start" x="452.21" y="-455.8" font-family="Arial" font-size="14.00" fill="#666666">[nvarchar(1000)]</text>
<polygon fill="none" stroke="black" points="407.07,-412.8 407.07,-443.6 659.24,-443.6 659.24,-412.8 407.07,-412.8"/>
<text text-anchor="start" x="414.07" y="-425" font-family="Arial" font-size="14.00">test_data_group </text>
<text text-anchor="start" x="519.15" y="-425" font-family="Arial" font-size="14.00" fill="#666666">[int]</text>
<polygon fill="none" stroke="black" points="407.07,-382 407.07,-412.8 659.24,-412.8 659.24,-382 407.07,-382"/>
<text text-anchor="start" x="414.07" y="-394.2" font-family="Arial" font-size="14.00">created </text>
<text text-anchor="start" x="464.66" y="-394.2" font-family="Arial" font-size="14.00" fill="#666666">[datetime]</text>
<polygon fill="none" stroke="black" points="407.07,-351.2 407.07,-382 659.24,-382 659.24,-351.2 407.07,-351.2"/>
<text text-anchor="start" x="414.07" y="-363.4" font-family="Arial" font-size="14.00">active </text>
<text text-anchor="start" x="454.53" y="-363.4" font-family="Arial" font-size="14.00" fill="#666666">[bit]</text>
</g>
<!-- role_permission_mapping&#45;&gt;role -->
<g id="edge2" class="edge">
<title>role_permission_mapping:role_rid&#45;&gt;role:role_rid</title>
<path fill="none" stroke="black" d="M705.62,-1381.63C727.17,-1309.65 690.89,-797.8 660.24,-797.8"/>
<polygon fill="black" stroke="black" points="705.68,-1381.56 696.23,-1387.13 702.6,-1385.91 700.1,-1389.45 700.1,-1389.45 700.1,-1389.45 702.6,-1385.91 703.59,-1392.32 705.68,-1381.56"/>
</g>
<!-- user_accounts -->
<g id="node4" class="node">
<title>user_accounts</title>
<polygon fill="#efefef" stroke="none" points="764.07,-1152 764.07,-1187.6 1016.24,-1187.6 1016.24,-1152 764.07,-1152"/>
<polygon fill="none" stroke="black" points="764.07,-1152 764.07,-1187.6 1016.24,-1187.6 1016.24,-1152 764.07,-1152"/>
<text text-anchor="start" x="774.6" y="-1165.4" font-family="Arial Bold" font-size="18.00">user_accounts</text>
<text text-anchor="start" x="876.56" y="-1165.4" font-family="Arial" font-size="14.00">    </text>
<text text-anchor="start" x="907.68" y="-1165.4" font-family="Arial" font-size="14.00" fill="#666666">[BASIC TABLE]</text>
<polygon fill="none" stroke="black" points="764.07,-1121.2 764.07,-1152 1016.24,-1152 1016.24,-1121.2 764.07,-1121.2"/>
<text text-anchor="start" x="771.07" y="-1133.4" font-family="Arial" font-size="14.00">user_uuid </text>
<text text-anchor="start" x="836.45" y="-1133.4" font-family="Arial" font-size="14.00" fill="#666666">[uniqueidentifier]</text>
<polygon fill="none" stroke="black" points="764.07,-1090.4 764.07,-1121.2 1016.24,-1121.2 1016.24,-1090.4 764.07,-1090.4"/>
<text text-anchor="start" x="771.07" y="-1102.6" font-family="Arial" font-size="14.00">user_rid </text>
<text text-anchor="start" x="825.54" y="-1102.6" font-family="Arial" font-size="14.00" fill="#666666">[bigint]</text>
<polygon fill="none" stroke="black" points="764.07,-1059.6 764.07,-1090.4 1016.24,-1090.4 1016.24,-1059.6 764.07,-1059.6"/>
<text text-anchor="start" x="771.07" y="-1071.8" font-family="Arial" font-size="14.00">tenant_uuid </text>
<text text-anchor="start" x="848.14" y="-1071.8" font-family="Arial" font-size="14.00" fill="#666666">[uniqueidentifier]</text>
<polygon fill="none" stroke="black" points="764.07,-1028.8 764.07,-1059.6 1016.24,-1059.6 1016.24,-1028.8 764.07,-1028.8"/>
<text text-anchor="start" x="771.07" y="-1041" font-family="Arial" font-size="14.00">user_name </text>
<text text-anchor="start" x="845" y="-1041" font-family="Arial" font-size="14.00" fill="#666666">[nvarchar(200)]</text>
<polygon fill="none" stroke="black" points="764.07,-998 764.07,-1028.8 1016.24,-1028.8 1016.24,-998 764.07,-998"/>
<text text-anchor="start" x="771.07" y="-1010.2" font-family="Arial" font-size="14.00">first_name </text>
<text text-anchor="start" x="840.32" y="-1010.2" font-family="Arial" font-size="14.00" fill="#666666">[nvarchar(50)]</text>
<polygon fill="none" stroke="black" points="764.07,-967.2 764.07,-998 1016.24,-998 1016.24,-967.2 764.07,-967.2"/>
<text text-anchor="start" x="771.07" y="-979.4" font-family="Arial" font-size="14.00">last_name </text>
<text text-anchor="start" x="839.55" y="-979.4" font-family="Arial" font-size="14.00" fill="#666666">[nvarchar(50)]</text>
<polygon fill="none" stroke="black" points="764.07,-936.4 764.07,-967.2 1016.24,-967.2 1016.24,-936.4 764.07,-936.4"/>
<text text-anchor="start" x="771.07" y="-948.6" font-family="Arial" font-size="14.00">email_address </text>
<text text-anchor="start" x="866.01" y="-948.6" font-family="Arial" font-size="14.00" fill="#666666">[nvarchar(300)]</text>
<polygon fill="none" stroke="black" points="764.07,-905.6 764.07,-936.4 1016.24,-936.4 1016.24,-905.6 764.07,-905.6"/>
<text text-anchor="start" x="771.07" y="-917.8" font-family="Arial" font-size="14.00">phone_number </text>
<text text-anchor="start" x="869.14" y="-917.8" font-family="Arial" font-size="14.00" fill="#666666">[nvarchar(50)]</text>
<polygon fill="none" stroke="black" points="764.07,-874.8 764.07,-905.6 1016.24,-905.6 1016.24,-874.8 764.07,-874.8"/>
<text text-anchor="start" x="771.07" y="-887" font-family="Arial" font-size="14.00">phone_extension </text>
<text text-anchor="start" x="881.61" y="-887" font-family="Arial" font-size="14.00" fill="#666666">[int]</text>
<polygon fill="none" stroke="black" points="764.07,-844 764.07,-874.8 1016.24,-874.8 1016.24,-844 764.07,-844"/>
<text text-anchor="start" x="771.07" y="-856.2" font-family="Arial" font-size="14.00">title </text>
<text text-anchor="start" x="796.74" y="-856.2" font-family="Arial" font-size="14.00" fill="#666666">[nvarchar(200)]</text>
<polygon fill="none" stroke="black" points="764.07,-813.2 764.07,-844 1016.24,-844 1016.24,-813.2 764.07,-813.2"/>
<text text-anchor="start" x="771.07" y="-825.4" font-family="Arial" font-size="14.00">landing_page </text>
<text text-anchor="start" x="859.04" y="-825.4" font-family="Arial" font-size="14.00" fill="#666666">[nvarchar(55)]</text>
<polygon fill="none" stroke="black" points="764.07,-782.4 764.07,-813.2 1016.24,-813.2 1016.24,-782.4 764.07,-782.4"/>
<text text-anchor="start" x="771.07" y="-794.6" font-family="Arial" font-size="14.00">object_id </text>
<text text-anchor="start" x="831" y="-794.6" font-family="Arial" font-size="14.00" fill="#666666">[nvarchar(50)]</text>
<polygon fill="none" stroke="black" points="764.07,-751.6 764.07,-782.4 1016.24,-782.4 1016.24,-751.6 764.07,-751.6"/>
<text text-anchor="start" x="771.07" y="-763.8" font-family="Arial" font-size="14.00">role_rid </text>
<text text-anchor="start" x="821.65" y="-763.8" font-family="Arial" font-size="14.00" fill="#666666">[bigint]</text>
<polygon fill="none" stroke="black" points="764.07,-720.8 764.07,-751.6 1016.24,-751.6 1016.24,-720.8 764.07,-720.8"/>
<text text-anchor="start" x="771.07" y="-733" font-family="Arial" font-size="14.00">account_type_code </text>
<text text-anchor="start" x="896.39" y="-733" font-family="Arial" font-size="14.00" fill="#666666">[varchar(30)]</text>
<polygon fill="none" stroke="black" points="764.07,-690 764.07,-720.8 1016.24,-720.8 1016.24,-690 764.07,-690"/>
<text text-anchor="start" x="771.07" y="-702.2" font-family="Arial" font-size="14.00">speed_type_code </text>
<text text-anchor="start" x="885.5" y="-702.2" font-family="Arial" font-size="14.00" fill="#666666">[varchar(30)]</text>
<polygon fill="none" stroke="black" points="764.07,-659.2 764.07,-690 1016.24,-690 1016.24,-659.2 764.07,-659.2"/>
<text text-anchor="start" x="771.07" y="-671.4" font-family="Arial" font-size="14.00">language_code </text>
<text text-anchor="start" x="870.72" y="-671.4" font-family="Arial" font-size="14.00" fill="#666666">[varchar(30)]</text>
<polygon fill="none" stroke="black" points="764.07,-628.4 764.07,-659.2 1016.24,-659.2 1016.24,-628.4 764.07,-628.4"/>
<text text-anchor="start" x="771.07" y="-640.6" font-family="Arial" font-size="14.00">temperature_type_code </text>
<text text-anchor="start" x="922.83" y="-640.6" font-family="Arial" font-size="14.00" fill="#666666">[varchar(30)]</text>
<polygon fill="none" stroke="black" points="764.07,-597.6 764.07,-628.4 1016.24,-628.4 1016.24,-597.6 764.07,-597.6"/>
<text text-anchor="start" x="771.07" y="-609.8" font-family="Arial" font-size="14.00">fuel_type_code </text>
<text text-anchor="start" x="869.92" y="-609.8" font-family="Arial" font-size="14.00" fill="#666666">[varchar(30)]</text>
<polygon fill="none" stroke="black" points="764.07,-566.8 764.07,-597.6 1016.24,-597.6 1016.24,-566.8 764.07,-566.8"/>
<text text-anchor="start" x="771.07" y="-579" font-family="Arial" font-size="14.00">timezone_code </text>
<text text-anchor="start" x="869.91" y="-579" font-family="Arial" font-size="14.00" fill="#666666">[varchar(30)]</text>
<polygon fill="none" stroke="black" points="764.07,-536 764.07,-566.8 1016.24,-566.8 1016.24,-536 764.07,-536"/>
<text text-anchor="start" x="771.07" y="-548.2" font-family="Arial" font-size="14.00">theme_code </text>
<text text-anchor="start" x="852.01" y="-548.2" font-family="Arial" font-size="14.00" fill="#666666">[varchar(30)]</text>
<polygon fill="none" stroke="black" points="764.07,-505.2 764.07,-536 1016.24,-536 1016.24,-505.2 764.07,-505.2"/>
<text text-anchor="start" x="771.07" y="-517.4" font-family="Arial" font-size="14.00">tour_status_code </text>
<text text-anchor="start" x="882.37" y="-517.4" font-family="Arial" font-size="14.00" fill="#666666">[varchar(30)]</text>
<polygon fill="none" stroke="black" points="764.07,-474.4 764.07,-505.2 1016.24,-505.2 1016.24,-474.4 764.07,-474.4"/>
<text text-anchor="start" x="771.07" y="-486.6" font-family="Arial" font-size="14.00">phone_type_code </text>
<text text-anchor="start" x="886.28" y="-486.6" font-family="Arial" font-size="14.00" fill="#666666">[varchar(30)]</text>
<polygon fill="none" stroke="black" points="764.07,-443.6 764.07,-474.4 1016.24,-474.4 1016.24,-443.6 764.07,-443.6"/>
<text text-anchor="start" x="771.07" y="-455.8" font-family="Arial" font-size="14.00">status_code </text>
<text text-anchor="start" x="850.45" y="-455.8" font-family="Arial" font-size="14.00" fill="#666666">[varchar(30)]</text>
<polygon fill="none" stroke="black" points="764.07,-412.8 764.07,-443.6 1016.24,-443.6 1016.24,-412.8 764.07,-412.8"/>
<text text-anchor="start" x="771.07" y="-425" font-family="Arial" font-size="14.00">is_active </text>
<text text-anchor="start" x="829.43" y="-425" font-family="Arial" font-size="14.00" fill="#666666">[bit]</text>
<polygon fill="none" stroke="black" points="764.07,-382 764.07,-412.8 1016.24,-412.8 1016.24,-382 764.07,-382"/>
<text text-anchor="start" x="771.07" y="-394.2" font-family="Arial" font-size="14.00">is_onboarded </text>
<text text-anchor="start" x="859.81" y="-394.2" font-family="Arial" font-size="14.00" fill="#666666">[bit]</text>
<polygon fill="none" stroke="black" points="764.07,-351.2 764.07,-382 1016.24,-382 1016.24,-351.2 764.07,-351.2"/>
<text text-anchor="start" x="771.07" y="-363.4" font-family="Arial" font-size="14.00">is_migrated_data </text>
<text text-anchor="start" x="882.36" y="-363.4" font-family="Arial" font-size="14.00" fill="#666666">[bit]</text>
<polygon fill="none" stroke="black" points="764.07,-320.4 764.07,-351.2 1016.24,-351.2 1016.24,-320.4 764.07,-320.4"/>
<text text-anchor="start" x="771.07" y="-332.6" font-family="Arial" font-size="14.00">created_date </text>
<text text-anchor="start" x="856.69" y="-332.6" font-family="Arial" font-size="14.00" fill="#666666">[datetime]</text>
<polygon fill="none" stroke="black" points="764.07,-289.6 764.07,-320.4 1016.24,-320.4 1016.24,-289.6 764.07,-289.6"/>
<text text-anchor="start" x="771.07" y="-301.8" font-family="Arial" font-size="14.00">updated_date </text>
<text text-anchor="start" x="860.6" y="-301.8" font-family="Arial" font-size="14.00" fill="#666666">[datetime]</text>
<polygon fill="none" stroke="black" points="764.07,-258.8 764.07,-289.6 1016.24,-289.6 1016.24,-258.8 764.07,-258.8"/>
<text text-anchor="start" x="771.07" y="-271" font-family="Arial" font-size="14.00">activated_date </text>
<text text-anchor="start" x="866.03" y="-271" font-family="Arial" font-size="14.00" fill="#666666">[datetime]</text>
<polygon fill="none" stroke="black" points="764.07,-228 764.07,-258.8 1016.24,-258.8 1016.24,-228 764.07,-228"/>
<text text-anchor="start" x="771.07" y="-240.2" font-family="Arial" font-size="14.00">expiration_date </text>
<text text-anchor="start" x="870.7" y="-240.2" font-family="Arial" font-size="14.00" fill="#666666">[datetime]</text>
<polygon fill="none" stroke="black" points="764.07,-197.2 764.07,-228 1016.24,-228 1016.24,-197.2 764.07,-197.2"/>
<text text-anchor="start" x="771.07" y="-209.4" font-family="Arial" font-size="14.00">created_by_user_rid </text>
<text text-anchor="start" x="902.59" y="-209.4" font-family="Arial" font-size="14.00" fill="#666666">[uniqueidentifier]</text>
<polygon fill="none" stroke="black" points="764.07,-166.4 764.07,-197.2 1016.24,-197.2 1016.24,-166.4 764.07,-166.4"/>
<text text-anchor="start" x="771.07" y="-178.6" font-family="Arial" font-size="14.00">updated_by_user_rid </text>
<text text-anchor="start" x="906.5" y="-178.6" font-family="Arial" font-size="14.00" fill="#666666">[uniqueidentifier]</text>
<polygon fill="none" stroke="black" points="764.07,-135.6 764.07,-166.4 1016.24,-166.4 1016.24,-135.6 764.07,-135.6"/>
<text text-anchor="start" x="771.07" y="-147.8" font-family="Arial" font-size="14.00">notes </text>
<text text-anchor="start" x="809.21" y="-147.8" font-family="Arial" font-size="14.00" fill="#666666">[nvarchar(1000)]</text>
<polygon fill="none" stroke="black" points="764.07,-104.8 764.07,-135.6 1016.24,-135.6 1016.24,-104.8 764.07,-104.8"/>
<text text-anchor="start" x="771.07" y="-117" font-family="Arial" font-size="14.00">test_data_group </text>
<text text-anchor="start" x="876.15" y="-117" font-family="Arial" font-size="14.00" fill="#666666">[int]</text>
<polygon fill="none" stroke="black" points="764.07,-74 764.07,-104.8 1016.24,-104.8 1016.24,-74 764.07,-74"/>
<text text-anchor="start" x="771.07" y="-86.2" font-family="Arial" font-size="14.00">active </text>
<text text-anchor="start" x="811.53" y="-86.2" font-family="Arial" font-size="14.00" fill="#666666">[bit]</text>
<polygon fill="none" stroke="black" points="764.07,-43.2 764.07,-74 1016.24,-74 1016.24,-43.2 764.07,-43.2"/>
<text text-anchor="start" x="771.07" y="-55.4" font-family="Arial" font-size="14.00">created </text>
<text text-anchor="start" x="821.66" y="-55.4" font-family="Arial" font-size="14.00" fill="#666666">[datetime]</text>
</g>
<!-- role_permission_mapping&#45;&gt;user_accounts -->
<g id="edge3" class="edge">
<title>role_permission_mapping:created_by_user_rid&#45;&gt;user_accounts:user_rid</title>
<path fill="none" stroke="black" d="M710.07,-1358.43C805.22,-1343.13 650.72,-1105.8 763.07,-1105.8"/>
<polygon fill="black" stroke="black" points="710.02,-1358.43 699.71,-1354.69 704.7,-1358.83 700.38,-1359.15 700.38,-1359.15 700.38,-1359.15 704.7,-1358.83 700.38,-1363.66 710.02,-1358.43"/>
</g>
</g>
</svg>
