<?xml version="1.0" encoding="UTF-8" standalone="no"?>
<!DOCTYPE svg PUBLIC "-//W3C//DTD SVG 1.1//EN"
 "http://www.w3.org/Graphics/SVG/1.1/DTD/svg11.dtd">
<!-- Generated by graphviz version 12.1.2 (20240928.0832)
 -->
<!-- Title: tenant_service_level_mapping Pages: 1 -->
<svg width="797pt" height="1742pt"
 viewBox="0.00 0.00 796.99 1741.60" xmlns="http://www.w3.org/2000/svg" xmlns:xlink="http://www.w3.org/1999/xlink">
<g id="graph0" class="graph" transform="scale(1 1) rotate(0) translate(4 1737.6)">
<title>tenant_service_level_mapping</title>
<polygon fill="white" stroke="none" points="-4,4 -4,-1737.6 792.99,-1737.6 792.99,4 -4,4"/>
<!-- tenant_service_level_mapping -->
<g id="node1" class="node">
<title>tenant_service_level_mapping</title>
<polygon fill="#efefef" stroke="none" points="351.62,-1651.8 351.62,-1687.4 714.69,-1687.4 714.69,-1651.8 351.62,-1651.8"/>
<polygon fill="none" stroke="black" points="351.62,-1651.8 351.62,-1687.4 714.69,-1687.4 714.69,-1651.8 351.62,-1651.8"/>
<text text-anchor="start" x="358.62" y="-1665.2" font-family="Arial Bold" font-size="18.00">tenant_service_level_mapping</text>
<text text-anchor="start" x="578.54" y="-1665.2" font-family="Arial" font-size="14.00">    </text>
<text text-anchor="start" x="609.66" y="-1665.2" font-family="Arial" font-size="14.00" fill="#666666">[BASIC TABLE]</text>
<polygon fill="none" stroke="black" points="351.62,-1621 351.62,-1651.8 714.69,-1651.8 714.69,-1621 351.62,-1621"/>
<text text-anchor="start" x="358.62" y="-1633.2" font-family="Arial" font-size="14.00">tenant_service_level_mapping_uuid </text>
<text text-anchor="start" x="585.89" y="-1633.2" font-family="Arial" font-size="14.00" fill="#666666">[uniqueidentifier]</text>
<polygon fill="none" stroke="black" points="351.62,-1590.2 351.62,-1621 714.69,-1621 714.69,-1590.2 351.62,-1590.2"/>
<text text-anchor="start" x="358.62" y="-1602.4" font-family="Arial" font-size="14.00">tenant_service_level_mapping_rid </text>
<text text-anchor="start" x="574.98" y="-1602.4" font-family="Arial" font-size="14.00" fill="#666666">[bigint]</text>
<polygon fill="none" stroke="black" points="351.62,-1559.4 351.62,-1590.2 714.69,-1590.2 714.69,-1559.4 351.62,-1559.4"/>
<text text-anchor="start" x="358.62" y="-1571.6" font-family="Arial" font-size="14.00">tenant_uuid </text>
<text text-anchor="start" x="435.69" y="-1571.6" font-family="Arial" font-size="14.00" fill="#666666">[uniqueidentifier]</text>
<polygon fill="none" stroke="black" points="351.62,-1528.6 351.62,-1559.4 714.69,-1559.4 714.69,-1528.6 351.62,-1528.6"/>
<text text-anchor="start" x="358.62" y="-1540.8" font-family="Arial" font-size="14.00">service_level_code </text>
<text text-anchor="start" x="481.58" y="-1540.8" font-family="Arial" font-size="14.00" fill="#666666">[varchar(30)]</text>
<polygon fill="none" stroke="black" points="351.62,-1497.8 351.62,-1528.6 714.69,-1528.6 714.69,-1497.8 351.62,-1497.8"/>
<text text-anchor="start" x="358.62" y="-1510" font-family="Arial" font-size="14.00">account_type_code </text>
<text text-anchor="start" x="483.94" y="-1510" font-family="Arial" font-size="14.00" fill="#666666">[varchar(30)]</text>
<polygon fill="none" stroke="black" points="351.62,-1467 351.62,-1497.8 714.69,-1497.8 714.69,-1467 351.62,-1467"/>
<text text-anchor="start" x="358.62" y="-1479.2" font-family="Arial" font-size="14.00">is_active </text>
<text text-anchor="start" x="416.98" y="-1479.2" font-family="Arial" font-size="14.00" fill="#666666">[bit]</text>
<polygon fill="none" stroke="black" points="351.62,-1436.2 351.62,-1467 714.69,-1467 714.69,-1436.2 351.62,-1436.2"/>
<text text-anchor="start" x="358.62" y="-1448.4" font-family="Arial" font-size="14.00">created_date </text>
<text text-anchor="start" x="444.24" y="-1448.4" font-family="Arial" font-size="14.00" fill="#666666">[datetime]</text>
<polygon fill="none" stroke="black" points="351.62,-1405.4 351.62,-1436.2 714.69,-1436.2 714.69,-1405.4 351.62,-1405.4"/>
<text text-anchor="start" x="358.62" y="-1417.6" font-family="Arial" font-size="14.00">updated_date </text>
<text text-anchor="start" x="448.15" y="-1417.6" font-family="Arial" font-size="14.00" fill="#666666">[datetime]</text>
<polygon fill="none" stroke="black" points="351.62,-1374.6 351.62,-1405.4 714.69,-1405.4 714.69,-1374.6 351.62,-1374.6"/>
<text text-anchor="start" x="358.62" y="-1386.8" font-family="Arial" font-size="14.00">created_by_user_rid </text>
<text text-anchor="start" x="490.14" y="-1386.8" font-family="Arial" font-size="14.00" fill="#666666">[bigint]</text>
<polygon fill="none" stroke="black" points="351.62,-1343.8 351.62,-1374.6 714.69,-1374.6 714.69,-1343.8 351.62,-1343.8"/>
<text text-anchor="start" x="358.62" y="-1356" font-family="Arial" font-size="14.00">updated_by_user_rid </text>
<text text-anchor="start" x="494.05" y="-1356" font-family="Arial" font-size="14.00" fill="#666666">[bigint]</text>
<polygon fill="none" stroke="black" points="351.62,-1313 351.62,-1343.8 714.69,-1343.8 714.69,-1313 351.62,-1313"/>
<text text-anchor="start" x="358.62" y="-1325.2" font-family="Arial" font-size="14.00">notes </text>
<text text-anchor="start" x="396.76" y="-1325.2" font-family="Arial" font-size="14.00" fill="#666666">[nvarchar(1000)]</text>
<polygon fill="none" stroke="black" stroke-width="3" points="350.12,-1311.5 350.12,-1688.9 716.19,-1688.9 716.19,-1311.5 350.12,-1311.5"/>
</g>
<!-- account_details -->
<g id="node2" class="node">
<title>account_details</title>
<polygon fill="#efefef" stroke="none" points="43.2,-1121.2 43.2,-1156.8 303.11,-1156.8 303.11,-1121.2 43.2,-1121.2"/>
<polygon fill="none" stroke="black" points="43.2,-1121.2 43.2,-1156.8 303.11,-1156.8 303.11,-1121.2 43.2,-1121.2"/>
<text text-anchor="start" x="52.6" y="-1134.6" font-family="Arial Bold" font-size="18.00">account_details</text>
<text text-anchor="start" x="164.56" y="-1134.6" font-family="Arial" font-size="14.00">    </text>
<text text-anchor="start" x="195.67" y="-1134.6" font-family="Arial" font-size="14.00" fill="#666666">[BASIC TABLE]</text>
<polygon fill="none" stroke="black" points="43.2,-1090.4 43.2,-1121.2 303.11,-1121.2 303.11,-1090.4 43.2,-1090.4"/>
<text text-anchor="start" x="50.2" y="-1102.6" font-family="Arial" font-size="14.00">tenant_uuid </text>
<text text-anchor="start" x="127.27" y="-1102.6" font-family="Arial" font-size="14.00" fill="#666666">[uniqueidentifier]</text>
<polygon fill="none" stroke="black" points="43.2,-1059.6 43.2,-1090.4 303.11,-1090.4 303.11,-1059.6 43.2,-1059.6"/>
<text text-anchor="start" x="50.2" y="-1071.8" font-family="Arial" font-size="14.00">organization </text>
<text text-anchor="start" x="130.37" y="-1071.8" font-family="Arial" font-size="14.00" fill="#666666">[nvarchar(100)]</text>
<polygon fill="none" stroke="black" points="43.2,-1028.8 43.2,-1059.6 303.11,-1059.6 303.11,-1028.8 43.2,-1028.8"/>
<text text-anchor="start" x="50.2" y="-1041" font-family="Arial" font-size="14.00">company_address </text>
<text text-anchor="start" x="168.49" y="-1041" font-family="Arial" font-size="14.00" fill="#666666">[nvarchar(200)]</text>
<polygon fill="none" stroke="black" points="43.2,-998 43.2,-1028.8 303.11,-1028.8 303.11,-998 43.2,-998"/>
<text text-anchor="start" x="50.2" y="-1010.2" font-family="Arial" font-size="14.00">additional_address </text>
<text text-anchor="start" x="171.62" y="-1010.2" font-family="Arial" font-size="14.00" fill="#666666">[nvarchar(200)]</text>
<polygon fill="none" stroke="black" points="43.2,-967.2 43.2,-998 303.11,-998 303.11,-967.2 43.2,-967.2"/>
<text text-anchor="start" x="50.2" y="-979.4" font-family="Arial" font-size="14.00">zip_code </text>
<text text-anchor="start" x="110.13" y="-979.4" font-family="Arial" font-size="14.00" fill="#666666">[nvarchar(50)]</text>
<polygon fill="none" stroke="black" points="43.2,-936.4 43.2,-967.2 303.11,-967.2 303.11,-936.4 43.2,-936.4"/>
<text text-anchor="start" x="50.2" y="-948.6" font-family="Arial" font-size="14.00">phone_number </text>
<text text-anchor="start" x="148.28" y="-948.6" font-family="Arial" font-size="14.00" fill="#666666">[nvarchar(50)]</text>
<polygon fill="none" stroke="black" points="43.2,-905.6 43.2,-936.4 303.11,-936.4 303.11,-905.6 43.2,-905.6"/>
<text text-anchor="start" x="50.2" y="-917.8" font-family="Arial" font-size="14.00">fax_number </text>
<text text-anchor="start" x="128.02" y="-917.8" font-family="Arial" font-size="14.00" fill="#666666">[nvarchar(50)]</text>
<polygon fill="none" stroke="black" points="43.2,-874.8 43.2,-905.6 303.11,-905.6 303.11,-874.8 43.2,-874.8"/>
<text text-anchor="start" x="50.2" y="-887" font-family="Arial" font-size="14.00">email </text>
<text text-anchor="start" x="87.54" y="-887" font-family="Arial" font-size="14.00" fill="#666666">[nvarchar(50)]</text>
<polygon fill="none" stroke="black" points="43.2,-844 43.2,-874.8 303.11,-874.8 303.11,-844 43.2,-844"/>
<text text-anchor="start" x="50.2" y="-856.2" font-family="Arial" font-size="14.00">company_website </text>
<text text-anchor="start" x="166.15" y="-856.2" font-family="Arial" font-size="14.00" fill="#666666">[nvarchar(200)]</text>
<polygon fill="none" stroke="black" points="43.2,-813.2 43.2,-844 303.11,-844 303.11,-813.2 43.2,-813.2"/>
<text text-anchor="start" x="50.2" y="-825.4" font-family="Arial" font-size="14.00">support_contact_number </text>
<text text-anchor="start" x="208.96" y="-825.4" font-family="Arial" font-size="14.00" fill="#666666">[nvarchar(50)]</text>
<polygon fill="none" stroke="black" points="43.2,-782.4 43.2,-813.2 303.11,-813.2 303.11,-782.4 43.2,-782.4"/>
<text text-anchor="start" x="50.2" y="-794.6" font-family="Arial" font-size="14.00">city </text>
<text text-anchor="start" x="75.09" y="-794.6" font-family="Arial" font-size="14.00" fill="#666666">[nvarchar(50)]</text>
<polygon fill="none" stroke="black" points="43.2,-751.6 43.2,-782.4 303.11,-782.4 303.11,-751.6 43.2,-751.6"/>
<text text-anchor="start" x="50.2" y="-763.8" font-family="Arial" font-size="14.00">state </text>
<text text-anchor="start" x="84.44" y="-763.8" font-family="Arial" font-size="14.00" fill="#666666">[nvarchar(50)]</text>
<polygon fill="none" stroke="black" points="43.2,-720.8 43.2,-751.6 303.11,-751.6 303.11,-720.8 43.2,-720.8"/>
<text text-anchor="start" x="50.2" y="-733" font-family="Arial" font-size="14.00">phone_extension </text>
<text text-anchor="start" x="160.74" y="-733" font-family="Arial" font-size="14.00" fill="#666666">[int]</text>
<polygon fill="none" stroke="black" points="43.2,-690 43.2,-720.8 303.11,-720.8 303.11,-690 43.2,-690"/>
<text text-anchor="start" x="50.2" y="-702.2" font-family="Arial" font-size="14.00">country </text>
<text text-anchor="start" x="100" y="-702.2" font-family="Arial" font-size="14.00" fill="#666666">[nvarchar(50)]</text>
<polygon fill="none" stroke="black" points="43.2,-659.2 43.2,-690 303.11,-690 303.11,-659.2 43.2,-659.2"/>
<text text-anchor="start" x="50.2" y="-671.4" font-family="Arial" font-size="14.00">dealer_rid </text>
<text text-anchor="start" x="116.35" y="-671.4" font-family="Arial" font-size="14.00" fill="#666666">[bigint]</text>
<polygon fill="none" stroke="black" points="43.2,-628.4 43.2,-659.2 303.11,-659.2 303.11,-628.4 43.2,-628.4"/>
<text text-anchor="start" x="50.2" y="-640.6" font-family="Arial" font-size="14.00">csm_rid </text>
<text text-anchor="start" x="103.1" y="-640.6" font-family="Arial" font-size="14.00" fill="#666666">[bigint]</text>
<polygon fill="none" stroke="black" points="43.2,-597.6 43.2,-628.4 303.11,-628.4 303.11,-597.6 43.2,-597.6"/>
<text text-anchor="start" x="50.2" y="-609.8" font-family="Arial" font-size="14.00">account_type_rid </text>
<text text-anchor="start" x="160.72" y="-609.8" font-family="Arial" font-size="14.00" fill="#666666">[bigint]</text>
<polygon fill="none" stroke="black" points="43.2,-566.8 43.2,-597.6 303.11,-597.6 303.11,-566.8 43.2,-566.8"/>
<text text-anchor="start" x="50.2" y="-579" font-family="Arial" font-size="14.00">phone_type_code </text>
<text text-anchor="start" x="165.41" y="-579" font-family="Arial" font-size="14.00" fill="#666666">[varchar(30)]</text>
<polygon fill="none" stroke="black" points="43.2,-536 43.2,-566.8 303.11,-566.8 303.11,-536 43.2,-536"/>
<text text-anchor="start" x="50.2" y="-548.2" font-family="Arial" font-size="14.00">default_role_code </text>
<text text-anchor="start" x="165.4" y="-548.2" font-family="Arial" font-size="14.00" fill="#666666">[varchar(30)]</text>
<polygon fill="none" stroke="black" points="43.2,-505.2 43.2,-536 303.11,-536 303.11,-505.2 43.2,-505.2"/>
<text text-anchor="start" x="50.2" y="-517.4" font-family="Arial" font-size="14.00">is_active </text>
<text text-anchor="start" x="108.56" y="-517.4" font-family="Arial" font-size="14.00" fill="#666666">[bit]</text>
<polygon fill="none" stroke="black" points="43.2,-474.4 43.2,-505.2 303.11,-505.2 303.11,-474.4 43.2,-474.4"/>
<text text-anchor="start" x="50.2" y="-486.6" font-family="Arial" font-size="14.00">is_door_sensor_1 </text>
<text text-anchor="start" x="165.39" y="-486.6" font-family="Arial" font-size="14.00" fill="#666666">[bit]</text>
<polygon fill="none" stroke="black" points="43.2,-443.6 43.2,-474.4 303.11,-474.4 303.11,-443.6 43.2,-443.6"/>
<text text-anchor="start" x="50.2" y="-455.8" font-family="Arial" font-size="14.00">is_door_sensor_2 </text>
<text text-anchor="start" x="165.39" y="-455.8" font-family="Arial" font-size="14.00" fill="#666666">[bit]</text>
<polygon fill="none" stroke="black" points="43.2,-412.8 43.2,-443.6 303.11,-443.6 303.11,-412.8 43.2,-412.8"/>
<text text-anchor="start" x="50.2" y="-425" font-family="Arial" font-size="14.00">is_door_sensor_3 </text>
<text text-anchor="start" x="165.39" y="-425" font-family="Arial" font-size="14.00" fill="#666666">[bit]</text>
<polygon fill="none" stroke="black" points="43.2,-382 43.2,-412.8 303.11,-412.8 303.11,-382 43.2,-382"/>
<text text-anchor="start" x="50.2" y="-394.2" font-family="Arial" font-size="14.00">created_date </text>
<text text-anchor="start" x="135.82" y="-394.2" font-family="Arial" font-size="14.00" fill="#666666">[datetime]</text>
<polygon fill="none" stroke="black" points="43.2,-351.2 43.2,-382 303.11,-382 303.11,-351.2 43.2,-351.2"/>
<text text-anchor="start" x="50.2" y="-363.4" font-family="Arial" font-size="14.00">updated_date </text>
<text text-anchor="start" x="139.73" y="-363.4" font-family="Arial" font-size="14.00" fill="#666666">[datetime]</text>
<polygon fill="none" stroke="black" points="43.2,-320.4 43.2,-351.2 303.11,-351.2 303.11,-320.4 43.2,-320.4"/>
<text text-anchor="start" x="50.2" y="-332.6" font-family="Arial" font-size="14.00">activated_date </text>
<text text-anchor="start" x="145.16" y="-332.6" font-family="Arial" font-size="14.00" fill="#666666">[datetime]</text>
<polygon fill="none" stroke="black" points="43.2,-289.6 43.2,-320.4 303.11,-320.4 303.11,-289.6 43.2,-289.6"/>
<text text-anchor="start" x="50.2" y="-301.8" font-family="Arial" font-size="14.00">admin_user_rid </text>
<text text-anchor="start" x="150.59" y="-301.8" font-family="Arial" font-size="14.00" fill="#666666">[uniqueidentifier]</text>
<polygon fill="none" stroke="black" points="43.2,-258.8 43.2,-289.6 303.11,-289.6 303.11,-258.8 43.2,-258.8"/>
<text text-anchor="start" x="50.2" y="-271" font-family="Arial" font-size="14.00">created_by_user_rid </text>
<text text-anchor="start" x="181.72" y="-271" font-family="Arial" font-size="14.00" fill="#666666">[bigint]</text>
<polygon fill="none" stroke="black" points="43.2,-228 43.2,-258.8 303.11,-258.8 303.11,-228 43.2,-228"/>
<text text-anchor="start" x="50.2" y="-240.2" font-family="Arial" font-size="14.00">updated_by_user_rid </text>
<text text-anchor="start" x="185.63" y="-240.2" font-family="Arial" font-size="14.00" fill="#666666">[bigint]</text>
<polygon fill="none" stroke="black" points="43.2,-197.2 43.2,-228 303.11,-228 303.11,-197.2 43.2,-197.2"/>
<text text-anchor="start" x="50.2" y="-209.4" font-family="Arial" font-size="14.00">notes </text>
<text text-anchor="start" x="88.34" y="-209.4" font-family="Arial" font-size="14.00" fill="#666666">[nvarchar(1000)]</text>
<polygon fill="none" stroke="black" points="43.2,-166.4 43.2,-197.2 303.11,-197.2 303.11,-166.4 43.2,-166.4"/>
<text text-anchor="start" x="50.2" y="-178.6" font-family="Arial" font-size="14.00">test_data_group </text>
<text text-anchor="start" x="155.28" y="-178.6" font-family="Arial" font-size="14.00" fill="#666666">[int]</text>
<polygon fill="none" stroke="black" points="43.2,-135.6 43.2,-166.4 303.11,-166.4 303.11,-135.6 43.2,-135.6"/>
<text text-anchor="start" x="50.2" y="-147.8" font-family="Arial" font-size="14.00">active </text>
<text text-anchor="start" x="90.66" y="-147.8" font-family="Arial" font-size="14.00" fill="#666666">[bit]</text>
<polygon fill="none" stroke="black" points="43.2,-104.8 43.2,-135.6 303.11,-135.6 303.11,-104.8 43.2,-104.8"/>
<text text-anchor="start" x="50.2" y="-117" font-family="Arial" font-size="14.00">created </text>
<text text-anchor="start" x="100.79" y="-117" font-family="Arial" font-size="14.00" fill="#666666">[datetime]</text>
<polygon fill="none" stroke="black" points="43.2,-74 43.2,-104.8 303.11,-104.8 303.11,-74 43.2,-74"/>
<text text-anchor="start" x="50.2" y="-86.2" font-family="Arial" font-size="14.00">migrated_data </text>
<text text-anchor="start" x="143.59" y="-86.2" font-family="Arial" font-size="14.00" fill="#666666">[bit]</text>
</g>
<!-- tenant_service_level_mapping&#45;&gt;account_details -->
<g id="edge1" class="edge">
<title>tenant_service_level_mapping:tenant_uuid&#45;&gt;account_details:tenant_uuid</title>
<path fill="none" stroke="black" d="M340.54,-1573.1C257.01,-1542.4 405.16,-1105.8 304.11,-1105.8"/>
<polygon fill="black" stroke="black" points="340.43,-1573.08 349.54,-1579.18 345.69,-1573.97 349.96,-1574.69 349.96,-1574.69 349.96,-1574.69 345.69,-1573.97 351.04,-1570.31 340.43,-1573.08"/>
</g>
<!-- user_accounts -->
<g id="node3" class="node">
<title>user_accounts</title>
<polygon fill="#efefef" stroke="none" points="407.07,-1152 407.07,-1187.6 659.24,-1187.6 659.24,-1152 407.07,-1152"/>
<polygon fill="none" stroke="black" points="407.07,-1152 407.07,-1187.6 659.24,-1187.6 659.24,-1152 407.07,-1152"/>
<text text-anchor="start" x="417.6" y="-1165.4" font-family="Arial Bold" font-size="18.00">user_accounts</text>
<text text-anchor="start" x="519.56" y="-1165.4" font-family="Arial" font-size="14.00">    </text>
<text text-anchor="start" x="550.68" y="-1165.4" font-family="Arial" font-size="14.00" fill="#666666">[BASIC TABLE]</text>
<polygon fill="none" stroke="black" points="407.07,-1121.2 407.07,-1152 659.24,-1152 659.24,-1121.2 407.07,-1121.2"/>
<text text-anchor="start" x="414.07" y="-1133.4" font-family="Arial" font-size="14.00">user_uuid </text>
<text text-anchor="start" x="479.45" y="-1133.4" font-family="Arial" font-size="14.00" fill="#666666">[uniqueidentifier]</text>
<polygon fill="none" stroke="black" points="407.07,-1090.4 407.07,-1121.2 659.24,-1121.2 659.24,-1090.4 407.07,-1090.4"/>
<text text-anchor="start" x="414.07" y="-1102.6" font-family="Arial" font-size="14.00">user_rid </text>
<text text-anchor="start" x="468.54" y="-1102.6" font-family="Arial" font-size="14.00" fill="#666666">[bigint]</text>
<polygon fill="none" stroke="black" points="407.07,-1059.6 407.07,-1090.4 659.24,-1090.4 659.24,-1059.6 407.07,-1059.6"/>
<text text-anchor="start" x="414.07" y="-1071.8" font-family="Arial" font-size="14.00">tenant_uuid </text>
<text text-anchor="start" x="491.14" y="-1071.8" font-family="Arial" font-size="14.00" fill="#666666">[uniqueidentifier]</text>
<polygon fill="none" stroke="black" points="407.07,-1028.8 407.07,-1059.6 659.24,-1059.6 659.24,-1028.8 407.07,-1028.8"/>
<text text-anchor="start" x="414.07" y="-1041" font-family="Arial" font-size="14.00">user_name </text>
<text text-anchor="start" x="488" y="-1041" font-family="Arial" font-size="14.00" fill="#666666">[nvarchar(200)]</text>
<polygon fill="none" stroke="black" points="407.07,-998 407.07,-1028.8 659.24,-1028.8 659.24,-998 407.07,-998"/>
<text text-anchor="start" x="414.07" y="-1010.2" font-family="Arial" font-size="14.00">first_name </text>
<text text-anchor="start" x="483.32" y="-1010.2" font-family="Arial" font-size="14.00" fill="#666666">[nvarchar(50)]</text>
<polygon fill="none" stroke="black" points="407.07,-967.2 407.07,-998 659.24,-998 659.24,-967.2 407.07,-967.2"/>
<text text-anchor="start" x="414.07" y="-979.4" font-family="Arial" font-size="14.00">last_name </text>
<text text-anchor="start" x="482.55" y="-979.4" font-family="Arial" font-size="14.00" fill="#666666">[nvarchar(50)]</text>
<polygon fill="none" stroke="black" points="407.07,-936.4 407.07,-967.2 659.24,-967.2 659.24,-936.4 407.07,-936.4"/>
<text text-anchor="start" x="414.07" y="-948.6" font-family="Arial" font-size="14.00">email_address </text>
<text text-anchor="start" x="509.01" y="-948.6" font-family="Arial" font-size="14.00" fill="#666666">[nvarchar(300)]</text>
<polygon fill="none" stroke="black" points="407.07,-905.6 407.07,-936.4 659.24,-936.4 659.24,-905.6 407.07,-905.6"/>
<text text-anchor="start" x="414.07" y="-917.8" font-family="Arial" font-size="14.00">phone_number </text>
<text text-anchor="start" x="512.14" y="-917.8" font-family="Arial" font-size="14.00" fill="#666666">[nvarchar(50)]</text>
<polygon fill="none" stroke="black" points="407.07,-874.8 407.07,-905.6 659.24,-905.6 659.24,-874.8 407.07,-874.8"/>
<text text-anchor="start" x="414.07" y="-887" font-family="Arial" font-size="14.00">phone_extension </text>
<text text-anchor="start" x="524.61" y="-887" font-family="Arial" font-size="14.00" fill="#666666">[int]</text>
<polygon fill="none" stroke="black" points="407.07,-844 407.07,-874.8 659.24,-874.8 659.24,-844 407.07,-844"/>
<text text-anchor="start" x="414.07" y="-856.2" font-family="Arial" font-size="14.00">title </text>
<text text-anchor="start" x="439.74" y="-856.2" font-family="Arial" font-size="14.00" fill="#666666">[nvarchar(200)]</text>
<polygon fill="none" stroke="black" points="407.07,-813.2 407.07,-844 659.24,-844 659.24,-813.2 407.07,-813.2"/>
<text text-anchor="start" x="414.07" y="-825.4" font-family="Arial" font-size="14.00">landing_page </text>
<text text-anchor="start" x="502.04" y="-825.4" font-family="Arial" font-size="14.00" fill="#666666">[nvarchar(55)]</text>
<polygon fill="none" stroke="black" points="407.07,-782.4 407.07,-813.2 659.24,-813.2 659.24,-782.4 407.07,-782.4"/>
<text text-anchor="start" x="414.07" y="-794.6" font-family="Arial" font-size="14.00">object_id </text>
<text text-anchor="start" x="474" y="-794.6" font-family="Arial" font-size="14.00" fill="#666666">[nvarchar(50)]</text>
<polygon fill="none" stroke="black" points="407.07,-751.6 407.07,-782.4 659.24,-782.4 659.24,-751.6 407.07,-751.6"/>
<text text-anchor="start" x="414.07" y="-763.8" font-family="Arial" font-size="14.00">role_rid </text>
<text text-anchor="start" x="464.65" y="-763.8" font-family="Arial" font-size="14.00" fill="#666666">[bigint]</text>
<polygon fill="none" stroke="black" points="407.07,-720.8 407.07,-751.6 659.24,-751.6 659.24,-720.8 407.07,-720.8"/>
<text text-anchor="start" x="414.07" y="-733" font-family="Arial" font-size="14.00">account_type_code </text>
<text text-anchor="start" x="539.39" y="-733" font-family="Arial" font-size="14.00" fill="#666666">[varchar(30)]</text>
<polygon fill="none" stroke="black" points="407.07,-690 407.07,-720.8 659.24,-720.8 659.24,-690 407.07,-690"/>
<text text-anchor="start" x="414.07" y="-702.2" font-family="Arial" font-size="14.00">speed_type_code </text>
<text text-anchor="start" x="528.5" y="-702.2" font-family="Arial" font-size="14.00" fill="#666666">[varchar(30)]</text>
<polygon fill="none" stroke="black" points="407.07,-659.2 407.07,-690 659.24,-690 659.24,-659.2 407.07,-659.2"/>
<text text-anchor="start" x="414.07" y="-671.4" font-family="Arial" font-size="14.00">language_code </text>
<text text-anchor="start" x="513.72" y="-671.4" font-family="Arial" font-size="14.00" fill="#666666">[varchar(30)]</text>
<polygon fill="none" stroke="black" points="407.07,-628.4 407.07,-659.2 659.24,-659.2 659.24,-628.4 407.07,-628.4"/>
<text text-anchor="start" x="414.07" y="-640.6" font-family="Arial" font-size="14.00">temperature_type_code </text>
<text text-anchor="start" x="565.83" y="-640.6" font-family="Arial" font-size="14.00" fill="#666666">[varchar(30)]</text>
<polygon fill="none" stroke="black" points="407.07,-597.6 407.07,-628.4 659.24,-628.4 659.24,-597.6 407.07,-597.6"/>
<text text-anchor="start" x="414.07" y="-609.8" font-family="Arial" font-size="14.00">fuel_type_code </text>
<text text-anchor="start" x="512.92" y="-609.8" font-family="Arial" font-size="14.00" fill="#666666">[varchar(30)]</text>
<polygon fill="none" stroke="black" points="407.07,-566.8 407.07,-597.6 659.24,-597.6 659.24,-566.8 407.07,-566.8"/>
<text text-anchor="start" x="414.07" y="-579" font-family="Arial" font-size="14.00">timezone_code </text>
<text text-anchor="start" x="512.91" y="-579" font-family="Arial" font-size="14.00" fill="#666666">[varchar(30)]</text>
<polygon fill="none" stroke="black" points="407.07,-536 407.07,-566.8 659.24,-566.8 659.24,-536 407.07,-536"/>
<text text-anchor="start" x="414.07" y="-548.2" font-family="Arial" font-size="14.00">theme_code </text>
<text text-anchor="start" x="495.01" y="-548.2" font-family="Arial" font-size="14.00" fill="#666666">[varchar(30)]</text>
<polygon fill="none" stroke="black" points="407.07,-505.2 407.07,-536 659.24,-536 659.24,-505.2 407.07,-505.2"/>
<text text-anchor="start" x="414.07" y="-517.4" font-family="Arial" font-size="14.00">tour_status_code </text>
<text text-anchor="start" x="525.37" y="-517.4" font-family="Arial" font-size="14.00" fill="#666666">[varchar(30)]</text>
<polygon fill="none" stroke="black" points="407.07,-474.4 407.07,-505.2 659.24,-505.2 659.24,-474.4 407.07,-474.4"/>
<text text-anchor="start" x="414.07" y="-486.6" font-family="Arial" font-size="14.00">phone_type_code </text>
<text text-anchor="start" x="529.28" y="-486.6" font-family="Arial" font-size="14.00" fill="#666666">[varchar(30)]</text>
<polygon fill="none" stroke="black" points="407.07,-443.6 407.07,-474.4 659.24,-474.4 659.24,-443.6 407.07,-443.6"/>
<text text-anchor="start" x="414.07" y="-455.8" font-family="Arial" font-size="14.00">status_code </text>
<text text-anchor="start" x="493.45" y="-455.8" font-family="Arial" font-size="14.00" fill="#666666">[varchar(30)]</text>
<polygon fill="none" stroke="black" points="407.07,-412.8 407.07,-443.6 659.24,-443.6 659.24,-412.8 407.07,-412.8"/>
<text text-anchor="start" x="414.07" y="-425" font-family="Arial" font-size="14.00">is_active </text>
<text text-anchor="start" x="472.43" y="-425" font-family="Arial" font-size="14.00" fill="#666666">[bit]</text>
<polygon fill="none" stroke="black" points="407.07,-382 407.07,-412.8 659.24,-412.8 659.24,-382 407.07,-382"/>
<text text-anchor="start" x="414.07" y="-394.2" font-family="Arial" font-size="14.00">is_onboarded </text>
<text text-anchor="start" x="502.81" y="-394.2" font-family="Arial" font-size="14.00" fill="#666666">[bit]</text>
<polygon fill="none" stroke="black" points="407.07,-351.2 407.07,-382 659.24,-382 659.24,-351.2 407.07,-351.2"/>
<text text-anchor="start" x="414.07" y="-363.4" font-family="Arial" font-size="14.00">is_migrated_data </text>
<text text-anchor="start" x="525.36" y="-363.4" font-family="Arial" font-size="14.00" fill="#666666">[bit]</text>
<polygon fill="none" stroke="black" points="407.07,-320.4 407.07,-351.2 659.24,-351.2 659.24,-320.4 407.07,-320.4"/>
<text text-anchor="start" x="414.07" y="-332.6" font-family="Arial" font-size="14.00">created_date </text>
<text text-anchor="start" x="499.69" y="-332.6" font-family="Arial" font-size="14.00" fill="#666666">[datetime]</text>
<polygon fill="none" stroke="black" points="407.07,-289.6 407.07,-320.4 659.24,-320.4 659.24,-289.6 407.07,-289.6"/>
<text text-anchor="start" x="414.07" y="-301.8" font-family="Arial" font-size="14.00">updated_date </text>
<text text-anchor="start" x="503.6" y="-301.8" font-family="Arial" font-size="14.00" fill="#666666">[datetime]</text>
<polygon fill="none" stroke="black" points="407.07,-258.8 407.07,-289.6 659.24,-289.6 659.24,-258.8 407.07,-258.8"/>
<text text-anchor="start" x="414.07" y="-271" font-family="Arial" font-size="14.00">activated_date </text>
<text text-anchor="start" x="509.03" y="-271" font-family="Arial" font-size="14.00" fill="#666666">[datetime]</text>
<polygon fill="none" stroke="black" points="407.07,-228 407.07,-258.8 659.24,-258.8 659.24,-228 407.07,-228"/>
<text text-anchor="start" x="414.07" y="-240.2" font-family="Arial" font-size="14.00">expiration_date </text>
<text text-anchor="start" x="513.7" y="-240.2" font-family="Arial" font-size="14.00" fill="#666666">[datetime]</text>
<polygon fill="none" stroke="black" points="407.07,-197.2 407.07,-228 659.24,-228 659.24,-197.2 407.07,-197.2"/>
<text text-anchor="start" x="414.07" y="-209.4" font-family="Arial" font-size="14.00">created_by_user_rid </text>
<text text-anchor="start" x="545.59" y="-209.4" font-family="Arial" font-size="14.00" fill="#666666">[uniqueidentifier]</text>
<polygon fill="none" stroke="black" points="407.07,-166.4 407.07,-197.2 659.24,-197.2 659.24,-166.4 407.07,-166.4"/>
<text text-anchor="start" x="414.07" y="-178.6" font-family="Arial" font-size="14.00">updated_by_user_rid </text>
<text text-anchor="start" x="549.5" y="-178.6" font-family="Arial" font-size="14.00" fill="#666666">[uniqueidentifier]</text>
<polygon fill="none" stroke="black" points="407.07,-135.6 407.07,-166.4 659.24,-166.4 659.24,-135.6 407.07,-135.6"/>
<text text-anchor="start" x="414.07" y="-147.8" font-family="Arial" font-size="14.00">notes </text>
<text text-anchor="start" x="452.21" y="-147.8" font-family="Arial" font-size="14.00" fill="#666666">[nvarchar(1000)]</text>
<polygon fill="none" stroke="black" points="407.07,-104.8 407.07,-135.6 659.24,-135.6 659.24,-104.8 407.07,-104.8"/>
<text text-anchor="start" x="414.07" y="-117" font-family="Arial" font-size="14.00">test_data_group </text>
<text text-anchor="start" x="519.15" y="-117" font-family="Arial" font-size="14.00" fill="#666666">[int]</text>
<polygon fill="none" stroke="black" points="407.07,-74 407.07,-104.8 659.24,-104.8 659.24,-74 407.07,-74"/>
<text text-anchor="start" x="414.07" y="-86.2" font-family="Arial" font-size="14.00">active </text>
<text text-anchor="start" x="454.53" y="-86.2" font-family="Arial" font-size="14.00" fill="#666666">[bit]</text>
<polygon fill="none" stroke="black" points="407.07,-43.2 407.07,-74 659.24,-74 659.24,-43.2 407.07,-43.2"/>
<text text-anchor="start" x="414.07" y="-55.4" font-family="Arial" font-size="14.00">created </text>
<text text-anchor="start" x="464.66" y="-55.4" font-family="Arial" font-size="14.00" fill="#666666">[datetime]</text>
</g>
<!-- tenant_service_level_mapping&#45;&gt;user_accounts -->
<g id="edge2" class="edge">
<title>tenant_service_level_mapping:created_by_user_rid&#45;&gt;user_accounts:user_rid</title>
<path fill="none" stroke="black" d="M725.84,-1389.37C841.3,-1374.67 785.41,-1105.8 660.24,-1105.8"/>
<polygon fill="black" stroke="black" points="726.01,-1389.36 715.75,-1385.49 720.68,-1389.69 716.36,-1389.96 716.36,-1389.96 716.36,-1389.96 720.68,-1389.69 716.3,-1394.47 726.01,-1389.36"/>
</g>
<!-- tenant_service_level_mapping&#45;&gt;user_accounts -->
<g id="edge3" class="edge">
<title>tenant_service_level_mapping:updated_by_user_rid&#45;&gt;user_accounts:user_rid</title>
<path fill="none" stroke="black" d="M726,-1358.47C827.45,-1343.61 771.92,-1105.8 660.24,-1105.8"/>
<polygon fill="black" stroke="black" points="726,-1358.47 715.71,-1354.69 720.68,-1358.85 716.36,-1359.15 716.36,-1359.15 716.36,-1359.15 720.68,-1358.85 716.34,-1363.67 726,-1358.47"/>
</g>
</g>
</svg>
